<svg id="analysis-icon_cache33" viewBox="0 0 24 24" xmlns="http://www.w3.org/2000/svg" fit="" height="100%" width="100%" preserveAspectRatio="xMidYMid meet" focusable="false">
  <g fill="none" fill-rule="evenodd" stroke="none" stroke-width="1">
    <g transform="translate(2, -1.638672)">
      <g>
        <path d="M18,13 L20,15 L20,20 C20,21.1 19.1,22 18,22 L4,22 C2.9,22 2,21.1 2,20 L2,6 C2,4.9 2.9,4 4,4 L9.5,4 C9.24,4.62 9.07,5.29 9.02,6 L4,6 L4,20 L18,20 L18,13 Z M8,18 L6,18 L6,9 L8,9 L8,18 Z M12,18 L10,18 L10,13.5 L12,13.5 L12,18 Z M16,18 L14,18 L14,12.2851562 L16,12.2851562 L16,18 Z M19.3,8.89 C19.74,8.19 20,7.38 20,6.5 C20,4.01 17.99,2 15.5,2 C13.01,2 11,4.01 11,6.5 C11,8.99 13.01,11 15.49,11 C16.37,11 17.19,10.74 17.88,10.3 L21,13.42 L22.42,12 L19.3,8.89 Z M15.5,9 C14.12,9 13,7.88 13,6.5 C13,5.12 14.12,4 15.5,4 C16.88,4 18,5.12 18,6.5 C18,7.88 16.88,9 15.5,9 Z" fill="white" fill-rule="nonzero"></path>
        <polygon points="0 0 24 0 24 24 0 24"></polygon>
        <polygon points="0 0 24 0 24 24 0 24"></polygon>
      </g>
    </g>
  </g>
</svg>